<svg xmlns="http://www.w3.org/2000/svg" xmlns:xlink="http://www.w3.org/1999/xlink" width="170" zoomAndPan="magnify" viewBox="0 0 127.5 50.999998" height="68" preserveAspectRatio="xMidYMid meet" version="1.0"><defs><g/></defs><g fill="#000000" fill-opacity="1"><g transform="translate(0, 33.994343)"><g><path d="M 28.46875 -20.625 C 28.46875 -18.65625 27.957031 -16.851562 26.9375 -15.21875 C 25.925781 -13.582031 24.453125 -12.242188 22.515625 -11.203125 C 20.578125 -10.171875 18.273438 -9.5625 15.609375 -9.375 L 14.109375 -1.03125 C 13.535156 2.164062 11.96875 3.765625 9.40625 3.765625 C 8 3.765625 6.703125 3.347656 5.515625 2.515625 C 4.328125 1.691406 3.375 0.425781 2.65625 -1.28125 C 1.945312 -2.988281 1.59375 -5.085938 1.59375 -7.578125 C 1.59375 -12.253906 2.347656 -16.222656 3.859375 -19.484375 C 5.367188 -22.753906 7.394531 -25.203125 9.9375 -26.828125 C 12.488281 -28.453125 15.300781 -29.265625 18.375 -29.265625 C 20.539062 -29.265625 22.378906 -28.882812 23.890625 -28.125 C 25.398438 -27.363281 26.539062 -26.332031 27.3125 -25.03125 C 28.082031 -23.726562 28.46875 -22.257812 28.46875 -20.625 Z M 16.21875 -12.9375 C 20.945312 -13.539062 23.3125 -16 23.3125 -20.3125 C 23.3125 -21.832031 22.8125 -23.070312 21.8125 -24.03125 C 20.8125 -24.988281 19.257812 -25.46875 17.15625 -25.46875 C 14.78125 -25.46875 12.707031 -24.71875 10.9375 -23.21875 C 9.175781 -21.71875 7.816406 -19.632812 6.859375 -16.96875 C 5.910156 -14.300781 5.4375 -11.265625 5.4375 -7.859375 C 5.4375 -6.421875 5.578125 -5.148438 5.859375 -4.046875 C 6.148438 -2.941406 6.519531 -2.082031 6.96875 -1.46875 C 7.414062 -0.851562 7.847656 -0.546875 8.265625 -0.546875 C 8.835938 -0.546875 9.273438 -1.34375 9.578125 -2.9375 L 10.71875 -9.484375 C 9.820312 -9.617188 9.429688 -9.675781 9.546875 -9.65625 C 8.859375 -9.769531 8.410156 -9.984375 8.203125 -10.296875 C 7.992188 -10.609375 7.890625 -11.003906 7.890625 -11.484375 C 7.890625 -11.992188 8.03125 -12.394531 8.3125 -12.6875 C 8.601562 -12.988281 9.003906 -13.140625 9.515625 -13.140625 C 9.742188 -13.140625 9.914062 -13.128906 10.03125 -13.109375 C 10.582031 -13.015625 11.007812 -12.957031 11.3125 -12.9375 C 11.613281 -14.738281 12.039062 -17.148438 12.59375 -20.171875 C 12.726562 -20.953125 13.039062 -21.507812 13.53125 -21.84375 C 14.03125 -22.175781 14.617188 -22.34375 15.296875 -22.34375 C 16.054688 -22.34375 16.601562 -22.195312 16.9375 -21.90625 C 17.269531 -21.625 17.4375 -21.171875 17.4375 -20.546875 C 17.4375 -20.179688 17.410156 -19.882812 17.359375 -19.65625 Z M 16.21875 -12.9375 "/></g></g></g><g fill="#000000" fill-opacity="1"><g transform="translate(27.853899, 33.994343)"><g><path d="M 6.1875 -18.40625 C 5.21875 -18.40625 4.488281 -18.628906 4 -19.078125 C 3.519531 -19.523438 3.28125 -20.15625 3.28125 -20.96875 C 3.28125 -21.769531 3.597656 -22.441406 4.234375 -22.984375 C 4.867188 -23.523438 5.660156 -23.796875 6.609375 -23.796875 C 7.460938 -23.796875 8.15625 -23.585938 8.6875 -23.171875 C 9.21875 -22.765625 9.484375 -22.175781 9.484375 -21.40625 C 9.484375 -20.488281 9.179688 -19.757812 8.578125 -19.21875 C 7.984375 -18.675781 7.1875 -18.40625 6.1875 -18.40625 Z M 5.921875 0.171875 C 4.421875 0.171875 3.328125 -0.359375 2.640625 -1.421875 C 1.960938 -2.484375 1.625 -3.890625 1.625 -5.640625 C 1.625 -6.679688 1.753906 -8.015625 2.015625 -9.640625 C 2.285156 -11.265625 2.628906 -12.78125 3.046875 -14.1875 C 3.253906 -14.925781 3.53125 -15.429688 3.875 -15.703125 C 4.21875 -15.984375 4.769531 -16.125 5.53125 -16.125 C 6.707031 -16.125 7.296875 -15.726562 7.296875 -14.9375 C 7.296875 -14.363281 7.078125 -13.03125 6.640625 -10.9375 C 6.085938 -8.394531 5.8125 -6.675781 5.8125 -5.78125 C 5.8125 -5.082031 5.898438 -4.546875 6.078125 -4.171875 C 6.265625 -3.804688 6.578125 -3.625 7.015625 -3.625 C 7.429688 -3.625 7.953125 -3.910156 8.578125 -4.484375 C 9.203125 -5.066406 10.03125 -5.984375 11.0625 -7.234375 C 11.34375 -7.554688 11.65625 -7.71875 12 -7.71875 C 12.300781 -7.71875 12.535156 -7.578125 12.703125 -7.296875 C 12.878906 -7.023438 12.96875 -6.644531 12.96875 -6.15625 C 12.96875 -5.238281 12.75 -4.523438 12.3125 -4.015625 C 10.03125 -1.222656 7.898438 0.171875 5.921875 0.171875 Z M 5.921875 0.171875 "/></g></g></g><g fill="#000000" fill-opacity="1"><g transform="translate(36.365775, 33.994343)"><g><path d="M 4.109375 0.171875 C 3.234375 0.171875 2.617188 -0.285156 2.265625 -1.203125 C 1.910156 -2.128906 1.734375 -3.609375 1.734375 -5.640625 C 1.734375 -8.640625 2.160156 -11.488281 3.015625 -14.1875 C 3.222656 -14.851562 3.5625 -15.34375 4.03125 -15.65625 C 4.5 -15.96875 5.160156 -16.125 6.015625 -16.125 C 6.484375 -16.125 6.804688 -16.066406 6.984375 -15.953125 C 7.171875 -15.835938 7.265625 -15.617188 7.265625 -15.296875 C 7.265625 -14.921875 7.09375 -14.085938 6.75 -12.796875 C 6.519531 -11.878906 6.332031 -11.070312 6.1875 -10.375 C 6.050781 -9.6875 5.9375 -8.832031 5.84375 -7.8125 C 6.601562 -9.800781 7.457031 -11.414062 8.40625 -12.65625 C 9.351562 -13.90625 10.28125 -14.796875 11.1875 -15.328125 C 12.101562 -15.859375 12.941406 -16.125 13.703125 -16.125 C 15.203125 -16.125 15.953125 -15.375 15.953125 -13.875 C 15.953125 -12.96875 15.695312 -11.34375 15.1875 -9 C 14.75 -6.988281 14.53125 -5.660156 14.53125 -5.015625 C 14.53125 -4.085938 14.863281 -3.625 15.53125 -3.625 C 15.988281 -3.625 16.535156 -3.90625 17.171875 -4.46875 C 17.804688 -5.039062 18.65625 -5.960938 19.71875 -7.234375 C 20 -7.554688 20.3125 -7.71875 20.65625 -7.71875 C 20.957031 -7.71875 21.191406 -7.578125 21.359375 -7.296875 C 21.535156 -7.023438 21.625 -6.644531 21.625 -6.15625 C 21.625 -5.238281 21.40625 -4.523438 20.96875 -4.015625 C 19.96875 -2.785156 18.894531 -1.78125 17.75 -1 C 16.613281 -0.21875 15.320312 0.171875 13.875 0.171875 C 12.695312 0.171875 11.804688 -0.164062 11.203125 -0.84375 C 10.609375 -1.53125 10.3125 -2.519531 10.3125 -3.8125 C 10.3125 -4.457031 10.472656 -5.609375 10.796875 -7.265625 C 11.097656 -8.710938 11.25 -9.71875 11.25 -10.28125 C 11.25 -10.644531 11.117188 -10.828125 10.859375 -10.828125 C 10.554688 -10.828125 10.132812 -10.441406 9.59375 -9.671875 C 9.050781 -8.898438 8.5 -7.878906 7.9375 -6.609375 C 7.375 -5.335938 6.921875 -4 6.578125 -2.59375 C 6.316406 -1.507812 6.019531 -0.773438 5.6875 -0.390625 C 5.351562 -0.015625 4.828125 0.171875 4.109375 0.171875 Z M 4.109375 0.171875 "/></g></g></g><g fill="#000000" fill-opacity="1"><g transform="translate(53.527931, 33.994343)"><g><path d="M 19.375 -7.640625 C 19.675781 -7.640625 19.910156 -7.492188 20.078125 -7.203125 C 20.253906 -6.921875 20.34375 -6.5625 20.34375 -6.125 C 20.34375 -5.59375 20.257812 -5.175781 20.09375 -4.875 C 19.9375 -4.570312 19.6875 -4.304688 19.34375 -4.078125 C 17.351562 -2.742188 15.898438 -1.753906 14.984375 -1.109375 L 12.765625 0.375 C 11.890625 5.15625 10.742188 8.910156 9.328125 11.640625 C 7.910156 14.367188 6.101562 15.734375 3.90625 15.734375 C 2.726562 15.734375 1.769531 15.367188 1.03125 14.640625 C 0.300781 13.921875 -0.0625 12.972656 -0.0625 11.796875 C -0.0625 10.160156 0.582031 8.398438 1.875 6.515625 C 3.164062 4.640625 5.582031 2.328125 9.125 -0.421875 L 9.34375 -1.765625 C 8.945312 -1.140625 8.429688 -0.660156 7.796875 -0.328125 C 7.160156 0.00390625 6.535156 0.171875 5.921875 0.171875 C 4.484375 0.171875 3.335938 -0.34375 2.484375 -1.375 C 1.628906 -2.414062 1.203125 -3.78125 1.203125 -5.46875 C 1.203125 -7.3125 1.628906 -9.054688 2.484375 -10.703125 C 3.335938 -12.359375 4.472656 -13.6875 5.890625 -14.6875 C 7.316406 -15.6875 8.820312 -16.1875 10.40625 -16.1875 C 10.914062 -16.1875 11.253906 -16.085938 11.421875 -15.890625 C 11.597656 -15.703125 11.742188 -15.351562 11.859375 -14.84375 C 12.296875 -14.9375 12.804688 -14.984375 13.390625 -14.984375 C 13.960938 -14.984375 14.367188 -14.894531 14.609375 -14.71875 C 14.859375 -14.539062 14.984375 -14.203125 14.984375 -13.703125 C 14.984375 -13.421875 14.96875 -13.203125 14.9375 -13.046875 C 14.851562 -12.328125 14.566406 -10.515625 14.078125 -7.609375 C 13.984375 -7.054688 13.882812 -6.453125 13.78125 -5.796875 C 13.675781 -5.140625 13.566406 -4.441406 13.453125 -3.703125 C 15.234375 -5.085938 16.941406 -6.3125 18.578125 -7.375 C 18.878906 -7.550781 19.144531 -7.640625 19.375 -7.640625 Z M 7.15625 -3.328125 C 7.6875 -3.328125 8.191406 -3.648438 8.671875 -4.296875 C 9.160156 -4.941406 9.507812 -5.863281 9.71875 -7.0625 L 10.828125 -12.96875 C 9.878906 -12.945312 9 -12.582031 8.1875 -11.875 C 7.382812 -11.175781 6.738281 -10.25 6.25 -9.09375 C 5.769531 -7.945312 5.53125 -6.726562 5.53125 -5.4375 C 5.53125 -4.71875 5.675781 -4.1875 5.96875 -3.84375 C 6.257812 -3.5 6.65625 -3.328125 7.15625 -3.328125 Z M 4.296875 12.390625 C 4.867188 12.390625 5.515625 11.695312 6.234375 10.3125 C 6.960938 8.925781 7.664062 6.722656 8.34375 3.703125 C 6.5625 5.222656 5.28125 6.59375 4.5 7.8125 C 3.71875 9.039062 3.328125 10.113281 3.328125 11.03125 C 3.328125 11.425781 3.398438 11.75 3.546875 12 C 3.691406 12.257812 3.941406 12.390625 4.296875 12.390625 Z M 4.296875 12.390625 "/></g></g></g><g fill="#8c52ff" fill-opacity="1"><g transform="translate(70.103912, 33.994343)"><g><path d="M 28.46875 -20.625 C 28.46875 -18.65625 27.957031 -16.851562 26.9375 -15.21875 C 25.925781 -13.582031 24.453125 -12.242188 22.515625 -11.203125 C 20.578125 -10.171875 18.273438 -9.5625 15.609375 -9.375 L 14.109375 -1.03125 C 13.535156 2.164062 11.96875 3.765625 9.40625 3.765625 C 8 3.765625 6.703125 3.347656 5.515625 2.515625 C 4.328125 1.691406 3.375 0.425781 2.65625 -1.28125 C 1.945312 -2.988281 1.59375 -5.085938 1.59375 -7.578125 C 1.59375 -12.253906 2.347656 -16.222656 3.859375 -19.484375 C 5.367188 -22.753906 7.394531 -25.203125 9.9375 -26.828125 C 12.488281 -28.453125 15.300781 -29.265625 18.375 -29.265625 C 20.539062 -29.265625 22.378906 -28.882812 23.890625 -28.125 C 25.398438 -27.363281 26.539062 -26.332031 27.3125 -25.03125 C 28.082031 -23.726562 28.46875 -22.257812 28.46875 -20.625 Z M 16.21875 -12.9375 C 20.945312 -13.539062 23.3125 -16 23.3125 -20.3125 C 23.3125 -21.832031 22.8125 -23.070312 21.8125 -24.03125 C 20.8125 -24.988281 19.257812 -25.46875 17.15625 -25.46875 C 14.78125 -25.46875 12.707031 -24.71875 10.9375 -23.21875 C 9.175781 -21.71875 7.816406 -19.632812 6.859375 -16.96875 C 5.910156 -14.300781 5.4375 -11.265625 5.4375 -7.859375 C 5.4375 -6.421875 5.578125 -5.148438 5.859375 -4.046875 C 6.148438 -2.941406 6.519531 -2.082031 6.96875 -1.46875 C 7.414062 -0.851562 7.847656 -0.546875 8.265625 -0.546875 C 8.835938 -0.546875 9.273438 -1.34375 9.578125 -2.9375 L 10.71875 -9.484375 C 9.820312 -9.617188 9.429688 -9.675781 9.546875 -9.65625 C 8.859375 -9.769531 8.410156 -9.984375 8.203125 -10.296875 C 7.992188 -10.609375 7.890625 -11.003906 7.890625 -11.484375 C 7.890625 -11.992188 8.03125 -12.394531 8.3125 -12.6875 C 8.601562 -12.988281 9.003906 -13.140625 9.515625 -13.140625 C 9.742188 -13.140625 9.914062 -13.128906 10.03125 -13.109375 C 10.582031 -13.015625 11.007812 -12.957031 11.3125 -12.9375 C 11.613281 -14.738281 12.039062 -17.148438 12.59375 -20.171875 C 12.726562 -20.953125 13.039062 -21.507812 13.53125 -21.84375 C 14.03125 -22.175781 14.617188 -22.34375 15.296875 -22.34375 C 16.054688 -22.34375 16.601562 -22.195312 16.9375 -21.90625 C 17.269531 -21.625 17.4375 -21.171875 17.4375 -20.546875 C 17.4375 -20.179688 17.410156 -19.882812 17.359375 -19.65625 Z M 16.21875 -12.9375 "/></g></g></g><g fill="#8c52ff" fill-opacity="1"><g transform="translate(94.375294, 33.994343)"><g><path d="M 5.921875 0.171875 C 4.484375 0.171875 3.335938 -0.34375 2.484375 -1.375 C 1.628906 -2.414062 1.203125 -3.78125 1.203125 -5.46875 C 1.203125 -7.3125 1.628906 -9.054688 2.484375 -10.703125 C 3.335938 -12.359375 4.472656 -13.6875 5.890625 -14.6875 C 7.316406 -15.6875 8.820312 -16.1875 10.40625 -16.1875 C 10.914062 -16.1875 11.253906 -16.085938 11.421875 -15.890625 C 11.597656 -15.703125 11.742188 -15.351562 11.859375 -14.84375 C 12.347656 -14.9375 12.859375 -14.984375 13.390625 -14.984375 C 14.515625 -14.984375 15.078125 -14.578125 15.078125 -13.765625 C 15.078125 -13.285156 14.90625 -12.132812 14.5625 -10.3125 C 14.03125 -7.65625 13.765625 -5.8125 13.765625 -4.78125 C 13.765625 -4.425781 13.847656 -4.144531 14.015625 -3.9375 C 14.191406 -3.726562 14.421875 -3.625 14.703125 -3.625 C 15.140625 -3.625 15.671875 -3.90625 16.296875 -4.46875 C 16.921875 -5.039062 17.757812 -5.960938 18.8125 -7.234375 C 19.09375 -7.554688 19.40625 -7.71875 19.75 -7.71875 C 20.050781 -7.71875 20.285156 -7.578125 20.453125 -7.296875 C 20.628906 -7.023438 20.71875 -6.644531 20.71875 -6.15625 C 20.71875 -5.238281 20.5 -4.523438 20.0625 -4.015625 C 19.113281 -2.835938 18.109375 -1.84375 17.046875 -1.03125 C 15.992188 -0.226562 14.96875 0.171875 13.96875 0.171875 C 13.207031 0.171875 12.507812 -0.0859375 11.875 -0.609375 C 11.25 -1.128906 10.773438 -1.835938 10.453125 -2.734375 C 9.253906 -0.796875 7.742188 0.171875 5.921875 0.171875 Z M 7.15625 -3.328125 C 7.664062 -3.328125 8.148438 -3.625 8.609375 -4.21875 C 9.078125 -4.820312 9.410156 -5.617188 9.609375 -6.609375 L 10.890625 -12.96875 C 9.921875 -12.945312 9.023438 -12.582031 8.203125 -11.875 C 7.390625 -11.175781 6.738281 -10.25 6.25 -9.09375 C 5.769531 -7.945312 5.53125 -6.726562 5.53125 -5.4375 C 5.53125 -4.71875 5.675781 -4.1875 5.96875 -3.84375 C 6.257812 -3.5 6.65625 -3.328125 7.15625 -3.328125 Z M 7.15625 -3.328125 "/></g></g></g><g fill="#8c52ff" fill-opacity="1"><g transform="translate(110.637819, 33.994343)"><g><path d="M 14.765625 -7.71875 C 15.066406 -7.71875 15.300781 -7.578125 15.46875 -7.296875 C 15.644531 -7.023438 15.734375 -6.644531 15.734375 -6.15625 C 15.734375 -5.238281 15.515625 -4.523438 15.078125 -4.015625 C 14.085938 -2.785156 13.007812 -1.78125 11.84375 -1 C 10.675781 -0.21875 9.359375 0.171875 7.890625 0.171875 C 5.859375 0.171875 4.351562 -0.75 3.375 -2.59375 C 2.394531 -4.4375 1.90625 -6.820312 1.90625 -9.75 C 1.90625 -12.5625 2.265625 -15.765625 2.984375 -19.359375 C 3.710938 -22.960938 4.785156 -26.054688 6.203125 -28.640625 C 7.628906 -31.222656 9.320312 -32.515625 11.28125 -32.515625 C 12.382812 -32.515625 13.253906 -32 13.890625 -30.96875 C 14.523438 -29.945312 14.84375 -28.476562 14.84375 -26.5625 C 14.84375 -23.820312 14.082031 -20.640625 12.5625 -17.015625 C 11.039062 -13.398438 8.972656 -9.816406 6.359375 -6.265625 C 6.523438 -5.316406 6.789062 -4.640625 7.15625 -4.234375 C 7.53125 -3.828125 8.015625 -3.625 8.609375 -3.625 C 9.554688 -3.625 10.382812 -3.894531 11.09375 -4.4375 C 11.8125 -4.988281 12.726562 -5.921875 13.84375 -7.234375 C 14.113281 -7.554688 14.421875 -7.71875 14.765625 -7.71875 Z M 10.515625 -29.09375 C 9.984375 -29.09375 9.382812 -28.132812 8.71875 -26.21875 C 8.050781 -24.300781 7.460938 -21.925781 6.953125 -19.09375 C 6.441406 -16.257812 6.164062 -13.539062 6.125 -10.9375 C 7.757812 -13.632812 9.0625 -16.335938 10.03125 -19.046875 C 11 -21.753906 11.484375 -24.226562 11.484375 -26.46875 C 11.484375 -28.21875 11.160156 -29.09375 10.515625 -29.09375 Z M 10.515625 -29.09375 "/></g></g></g></svg>